<?xml version="1.0" standalone="no"?>
<!DOCTYPE svg PUBLIC "-//W3C//DTD SVG 20010904//EN"
 "http://www.w3.org/TR/2001/REC-SVG-20010904/DTD/svg10.dtd">
<svg version="1.0" xmlns="http://www.w3.org/2000/svg"
 width="1200.000000pt" height="1200.000000pt" viewBox="0 0 1200.000000 1200.000000"
 preserveAspectRatio="xMidYMid meet">
<metadata>
Created by potrace 1.11, written by Peter Selinger 2001-2013
</metadata>
<g transform="translate(0.000000,1200.000000) scale(0.100000,-0.100000)"
fill="#000000" stroke="none">
<path d="M10580 11913 c-18 -27 -128 -183 -243 -348 -116 -165 -226 -322 -246
-350 -19 -27 -131 -187 -249 -355 -117 -168 -220 -314 -228 -325 -8 -11 -156
-221 -329 -467 -173 -246 -416 -588 -540 -760 -123 -172 -230 -321 -237 -332
-7 -10 -35 -49 -63 -87 -27 -38 -87 -122 -133 -187 -46 -64 -136 -191 -201
-282 -64 -91 -173 -244 -242 -341 -68 -97 -164 -234 -214 -303 -49 -70 -244
-344 -432 -609 -187 -265 -362 -511 -388 -547 -25 -36 -117 -166 -205 -290
-87 -124 -191 -270 -230 -325 -39 -55 -118 -165 -174 -245 -56 -80 -190 -269
-298 -420 -107 -151 -253 -357 -324 -458 -71 -101 -151 -214 -179 -252 -27
-38 -162 -229 -300 -424 -137 -195 -251 -351 -253 -346 -4 11 88 149 2513
3800 839 1263 1933 2914 2110 3185 66 100 395 633 500 810 47 79 60 115 41
115 -7 0 -62 -60 -123 -132 -132 -160 -283 -339 -298 -354 -41 -42 -311 -387
-450 -574 -91 -124 -175 -236 -185 -250 -96 -130 -455 -619 -783 -1069 -70
-97 -136 -187 -147 -201 -10 -14 -152 -207 -316 -430 -577 -787 -739 -1000
-1304 -1720 -80 -102 -158 -202 -175 -223 -145 -186 -229 -285 -304 -362 -95
-97 -159 -169 -206 -229 -16 -21 -59 -76 -95 -121 -36 -45 -78 -99 -95 -120
-16 -21 -75 -95 -130 -164 -55 -69 -201 -254 -324 -411 -260 -329 -332 -421
-371 -470 -15 -19 -157 -199 -314 -400 -158 -201 -294 -374 -303 -385 -49 -57
-83 -119 -82 -149 6 -169 97 -315 239 -384 72 -34 113 -42 274 -47 59 -2 110
-6 112 -8 3 -2 -37 -42 -87 -88 -51 -46 -100 -91 -108 -99 -9 -8 -66 -58 -126
-110 -61 -52 -112 -97 -115 -100 -7 -8 -231 -196 -300 -251 -407 -331 -829
-650 -1283 -971 -139 -99 -458 -320 -477 -331 l-25 -15 -105 175 c-169 283
-238 363 -350 408 -88 35 -234 25 -350 -24 -25 -11 -68 -28 -96 -40 l-52 -20
35 97 c64 177 141 406 167 492 26 87 34 116 87 305 33 120 36 129 104 380 25
94 64 235 86 314 22 79 42 151 44 160 2 9 15 59 30 111 14 52 44 160 66 240
54 192 130 419 180 538 59 138 108 227 281 507 84 138 187 306 227 375 41 69
84 141 96 160 22 35 73 120 116 196 22 37 153 261 182 309 7 11 19 31 28 45 9
14 27 45 41 70 14 25 56 97 93 160 38 63 81 138 97 165 16 28 37 64 47 80 25
41 221 375 235 400 17 29 154 263 186 315 15 25 53 90 85 145 32 55 84 143
115 195 31 52 68 115 82 140 28 49 82 140 288 490 73 124 144 245 158 270 14
25 42 73 63 107 35 57 37 64 22 78 -18 19 -23 6 158 393 54 116 60 130 50 137
-12 7 -22 -8 -77 -115 -26 -52 -136 -241 -242 -420 -107 -179 -202 -337 -211
-352 -172 -290 -795 -1308 -886 -1448 -12 -19 -127 -204 -255 -410 -128 -206
-243 -391 -255 -410 -13 -19 -124 -197 -247 -395 -123 -198 -241 -387 -262
-420 -20 -33 -43 -69 -49 -79 -7 -11 -30 -50 -53 -86 -88 -140 -125 -221 -178
-385 -51 -158 -144 -451 -238 -745 -22 -69 -48 -150 -58 -180 -10 -30 -41
-127 -68 -215 -28 -88 -81 -254 -117 -370 -37 -115 -82 -257 -100 -315 -18
-58 -55 -177 -83 -265 -164 -521 -262 -839 -347 -1121 -53 -176 -109 -363
-126 -417 -17 -54 -32 -106 -34 -115 -2 -9 -13 -46 -23 -82 -148 -493 -197
-667 -207 -735 -11 -78 -9 -174 4 -199 24 -44 78 -47 152 -8 42 22 353 240
624 438 96 70 307 221 335 240 19 13 58 41 86 61 144 105 358 260 378 273 25
17 305 220 321 233 6 4 75 55 155 113 80 58 156 113 170 124 14 10 122 89 240
176 199 146 414 308 1425 1069 204 153 395 299 425 324 66 55 193 183 229 231
14 19 29 37 32 40 13 11 109 151 109 159 0 5 3 11 8 13 4 1 48 64 97 138 530
791 699 1044 811 1215 190 289 401 610 556 845 166 252 355 540 503 765 61 94
169 258 240 365 71 107 179 272 240 365 62 94 183 278 270 410 151 229 239
362 510 775 184 279 374 569 547 830 85 129 212 323 283 430 128 194 694 1050
744 1124 14 21 31 46 36 54 525 786 569 856 571 910 2 28 2 52 0 52 -1 0 -17
-21 -36 -47z m-9236 -10354 c-135 -233 -258 -444 -272 -469 -14 -25 -35 -61
-47 -80 -12 -19 -25 -42 -28 -50 -4 -8 -20 -36 -35 -61 -15 -26 -74 -128 -132
-227 -58 -99 -106 -177 -108 -172 -5 13 36 255 59 350 11 47 22 95 25 107 15
75 96 289 154 408 132 267 267 441 420 540 66 43 191 90 208 79 2 -1 -108
-192 -244 -425z"/>
<path d="M6855 9379 c-17 -12 -42 -37 -55 -55 -15 -20 -39 -38 -60 -44 -71
-20 -98 -45 -307 -285 -209 -241 -477 -584 -953 -1220 -390 -521 -696 -940
-947 -1296 -29 -41 -56 -78 -60 -84 -32 -39 -565 -799 -768 -1095 -44 -64
-152 -221 -240 -348 -250 -362 -256 -374 -256 -479 0 -58 3 -76 22 -163 47
-211 237 -332 499 -317 109 6 178 33 228 88 15 17 98 137 184 267 87 131 162
244 168 252 5 8 82 125 171 260 300 455 719 1081 747 1115 4 6 70 102 147 215
76 113 162 239 190 280 120 175 250 366 359 525 63 94 119 175 123 180 4 6 31
44 59 85 28 41 134 197 236 345 101 149 220 322 263 385 43 63 120 176 171
250 50 74 120 180 154 234 l62 100 -59 -49 c-32 -28 -64 -55 -71 -62 -20 -19
-53 -26 -65 -14 -13 13 -16 87 -5 136 3 17 23 111 43 210 37 178 41 201 51
240 38 163 59 303 51 333 -12 39 -38 42 -82 11z"/>
<path d="M4968 9141 c-163 -161 -196 -207 -751 -1051 -252 -382 -482 -734
-607 -928 -69 -105 -165 -254 -214 -330 -268 -413 -509 -805 -816 -1322 -89
-151 -191 -322 -225 -380 -90 -151 -95 -163 -95 -222 1 -121 46 -223 140 -319
156 -157 380 -194 585 -94 74 36 126 94 211 234 210 347 550 896 556 899 5 2
8 7 8 12 0 7 184 310 255 420 13 19 60 96 105 170 46 74 99 162 120 195 133
214 429 693 559 905 29 47 187 303 352 570 444 718 451 730 444 730 -3 0 -44
-42 -93 -92 -48 -51 -312 -318 -587 -594 -440 -440 -510 -507 -580 -547 -44
-26 -87 -47 -97 -47 -48 0 -28 98 63 309 47 107 56 149 25 105 -8 -10 -18 -16
-22 -12 -4 4 -2 13 3 20 6 7 47 85 93 173 46 88 102 196 125 240 51 96 133
254 205 390 29 55 74 141 100 190 26 50 82 158 125 240 43 83 86 164 97 182
35 58 4 41 -84 -46z"/>
</g>
</svg>
