<?xml version="1.0" encoding="utf-8"?>
<!-- Generator: Adobe Illustrator 22.0.1, SVG Export Plug-In . SVG Version: 6.00 Build 0)  -->
<svg version="1.1" id="Layer_1" xmlns="http://www.w3.org/2000/svg" xmlns:xlink="http://www.w3.org/1999/xlink" x="0px" y="0px"
	 width="448px" height="512px" viewBox="0 0 448 512" style="enable-background:new 0 0 448 512;" xml:space="preserve">
<style type="text/css">
	.st0{fill:#454851;}
</style>
<path class="st0" d="M96,128C96,57.3,153.3,0,224,0s128,57.3,128,128s-57.3,128-128,128S96,198.7,96,128z M352,288h-54.6
	c-45.7,20.9-99.3,21.7-146.8,0H96c-53,0-96,43-96,96v104c0,13.3,10.7,24,24,24h400c13.3,0,24-10.7,24-24V384
	C448,331,405,288,352,288z"/>
</svg>
